PathFileType	4	(X/Y/Z)	E:\Qualisys_Data\Carbon_Farble_Plate\Data\Amateur_Runner\S14\T1\S14T1V13_c3d.trc
DataRate	CameraRate	NumFrames	NumMarkers	Units	OrigDataRate	OrigDataStartFrame	OrigNumFrames
200.000000	200.000000	5	39	mm	200.000000	0	339
Frame#	Time	LSHO			RSHO			LICST			RICST			LASIS			LHEEL			RASIS			LTROC			RTROC			SACR			LTH1			LSK4			LTH2			LTH3			RHM5			LSK2			LTH4			RTH1			LTOE			RTH2			RTH3			RTH4			LLEP			RLEP			LSK1			LSK3			RSK1			LHM5			RSK2			LFT1			RSK3			RSK4			LLME			RLME			RTOE			RHEEL			RFT1			RFT2			LFT2			
		X1	Y1	Z1	X2	Y2	Z2	X3	Y3	Z3	X4	Y4	Z4	X5	Y5	Z5	X6	Y6	Z6	X7	Y7	Z7	X8	Y8	Z8	X9	Y9	Z9	X10	Y10	Z10	X11	Y11	Z11	X12	Y12	Z12	X13	Y13	Z13	X14	Y14	Z14	X15	Y15	Z15	X16	Y16	Z16	X17	Y17	Z17	X18	Y18	Z18	X19	Y19	Z19	X20	Y20	Z20	X21	Y21	Z21	X22	Y22	Z22	X23	Y23	Z23	X24	Y24	Z24	X25	Y25	Z25	X26	Y26	Z26	X27	Y27	Z27	X28	Y28	Z28	X29	Y29	Z29	X30	Y30	Z30	X31	Y31	Z31	X32	Y32	Z32	X33	Y33	Z33	X34	Y34	Z34	X35	Y35	Z35	X36	Y36	Z36	X37	Y37	Z37	X38	Y38	Z38	X39	Y39	Z39	

1	0	-2523.992431640625	1492.064086914062	-572.9195556640625	-2582.47705078125	1498.411254882812	-280.8495483398438	-2614.404541015625	1041.970947265625	-551.452880859375	-2589.683349609375	1056.556884765625	-277.7445373535156	-2578.3271484375	988.9351806640625	-525.7041625976562	-3104.172607421875	288.696533203125	-430.6227722167969	-2565.145263671875	1011.150634765625	-295.7340393066406	-2744.01708984375	940.9815673828125	-554.1806030273438	-2699.51416015625	963.3478393554688	-238.7087860107422	-2739.533203125	1060.514404296875	-415.7476501464844	-2743.18701171875	713.0803833007812	-564.6527709960938	-2993.28369140625	427.2833557128906	-507.1676940917969	-2812.75244140625	739.80322265625	-535.4889526367188	-2765.99951171875	617.8814086914062	-541.8483276367188	-2443.888427734375	127.0023040771484	-232.2023010253906	-2935.9521484375	507.3060302734375	-523.811279296875	-2837.896240234375	645.1151733398438	-516.9805297851562	-2485.024658203125	768.251708984375	-246.657470703125	-2989.564453125	61.14687728881836	-461.3551940917969	-2556.764404296875	740.2755126953125	-237.1818695068359	-2444.873046875	680.6888427734375	-273.5679016113281	-2518.793701171875	646.9234619140625	-254.6039581298828	-2822.965576171875	563.7266235351562	-528.8286743164062	-2477.685791015625	588.8470458984375	-260.8125610351562	-2868.94189453125	458.9231567382812	-529.9284057617188	-2930.731201171875	377.6718139648438	-518.9664306640625	-2470.183349609375	465.4881896972656	-249.8180236816406	-3044.910400390625	105.2465286254883	-515.782470703125	-2555.108642578125	477.6399536132812	-251.2218322753906	-3113.779296875	266.5643005371094	-400.1181945800781	-2492.076171875	363.8118286132812	-258.4395446777344	-2569.22802734375	382.0528564453125	-259.7978820800781	-3062.689453125	256.944091796875	-490.4368896484375	-2567.096923828125	199.7441864013672	-271.0865173339844	-2366.154296875	129.0103302001953	-288.3137512207031	-2628.06787109375	176.8988647460938	-328.3387145996094	-2604.878662109375	142.8711547851562	-354.5964660644531	-2622.2607421875	151.5398864746094	-299.3885498046875	-3129.6142578125	270.7258911132812	-452.7743530273438
2	0.005	-2506.875732421875	1494.117553710938	-571.6204223632812	-2567.490234375	1500.070678710938	-280.3176879882812	-2597.505615234375	1044.486083984375	-551.2813110351562	-2573.916259765625	1058.397094726562	-277.7032470703125	-2561.26416015625	990.6553344726562	-525.020751953125	-3091.87548828125	296.1421508789062	-430.4536743164062	-2548.583251953125	1013.516540527344	-295.4518127441406	-2727.79052734375	943.5054931640624	-554.3131103515625	-2683.923095703125	965.2728881835938	-239.1675872802734	-2722.552001953125	1062.908325195312	-415.9842224121094	-2729.201171875	716.1769409179688	-565.4629516601562	-2980.592041015625	432.4659423828125	-506.7244262695312	-2797.83203125	743.1637573242188	-535.0258178710938	-2751.69482421875	620.8546752929688	-542.0380859375	-2411.373779296875	127.8669281005859	-231.980224609375	-2922.24462890625	511.3985290527344	-522.6834716796875	-2823.572998046875	648.6317138671875	-516.7152709960938	-2471.27001953125	768.5791015625	-246.9454803466797	-2986.598876953125	59.70386505126953	-462.5638427734375	-2542.7294921875	741.3484497070312	-237.5171356201172	-2429.81884765625	680.7283325195312	-273.0614013671875	-2503.375244140625	647.1307983398438	-254.1716766357422	-2809.476806640625	567.3091430664062	-529.0655517578125	-2463.649169921875	589.1011352539062	-260.8177795410156	-2856.157958984375	462.7396240234375	-530.4750366210938	-2918.583740234375	382.0562744140625	-519.043212890625	-2452.877685546875	465.5470886230469	-249.2790679931641	-3039.200439453125	110.9030151367188	-516.8584594726562	-2538.601806640625	473.9626159667969	-252.0489501953125	-3102.004150390625	273.6919860839844	-399.9417724609375	-2470.5419921875	362.5924682617188	-258.0227966308594	-2548.022216796875	377.5794067382812	-259.7494506835938	-3052.0078125	263.4992980957031	-491.166259765625	-2538.218017578125	194.6703338623047	-271.7059326171875	-2333.6689453125	133.5001678466797	-287.5933532714844	-2597.5615234375	169.8240356445312	-329.0469970703125	-2573.388671875	137.0908050537109	-355.879150390625	-2590.776123046875	143.8529663085938	-300.643310546875	-3118.3994140625	280.1473083496094	-453.1411743164062
3	0.01	-2490.336181640625	1496.491333007812	-570.2784423828125	-2552.48681640625	1501.656372070312	-279.7002563476562	-2579.9970703125	1046.205810546875	-551.2293090820312	-2557.521240234375	1059.760986328125	-277.3460693359375	-2544.98583984375	992.5645751953124	-525.3128051757812	-3079.365234375	303.2393188476562	-429.8627319335938	-2531.73828125	1015.032409667969	-295.4968872070312	-2711.510986328125	946.003662109375	-554.9406127929688	-2666.762939453125	966.9309692382812	-239.8817443847656	-2705.728271484375	1064.471557617188	-415.5933837890625	-2713.925537109375	718.7156372070312	-565.205810546875	-2968.1181640625	437.4737854003906	-506.7896728515625	-2782.200439453125	745.8148803710938	-534.22314453125	-2737.218505859375	623.829833984375	-542.8097534179688	-2379.8037109375	128.1912536621094	-231.5284576416016	-2908.70166015625	515.7559814453125	-522.9498291015625	-2808.5380859375	651.6942138671875	-516.5912475585938	-2456.1064453125	768.0014038085938	-247.6031951904297	-2981.967529296875	63.07155990600586	-464.9263305664062	-2527.43017578125	741.625244140625	-237.8231048583984	-2416.2333984375	680.0694580078125	-273.3624877929688	-2491.12353515625	647.2326049804688	-254.2721099853516	-2795.218505859375	570.5514526367188	-529.305908203125	-2450.533447265625	588.333740234375	-260.7702331542969	-2843.482421875	466.6433715820312	-531.213134765625	-2905.0341796875	387.1507568359375	-519.0960693359375	-2436.78857421875	464.8856201171875	-249.3294677734375	-3033.483154296875	116.6447219848633	-518.6722412109375	-2521.801025390625	469.5121765136719	-252.5755004882812	-3090.821533203125	281.1836242675781	-399.5539245605469	-2448.545166015625	361.8501586914062	-257.1251831054688	-2527.4462890625	372.9410400390625	-260.4153442382812	-3042.418701171875	271.0181274414062	-492.7440490722656	-2509.532958984375	190.12548828125	-271.6988525390625	-2302.018798828125	138.7479248046875	-287.2930908203125	-2566.12744140625	162.453857421875	-329.1866760253906	-2541.3427734375	131.3285980224609	-356.3674011230469	-2559.369140625	137.2612152099609	-301.0220031738281	-3107.14208984375	288.0122680664062	-452.52880859375
4	0.015	-2474.0068359375	1498.284057617188	-569.3938598632812	-2537.435546875	1502.694702148438	-279.2626647949219	-2562.985107421875	1047.605590820312	-550.678466796875	-2540.3984375	1060.916381835938	-277.4479675292969	-2528.185791015625	994.0681762695312	-525.449462890625	-3067.860107421875	310.3635559082031	-427.8387756347656	-2515.593505859375	1016.814331054688	-295.7455444335938	-2695.288330078125	948.07080078125	-555.4830322265625	-2649.994140625	967.9783325195312	-240.1536254882812	-2689.21728515625	1066.164306640625	-415.81298828125	-2698.32421875	720.9544067382812	-564.8820190429688	-2954.73876953125	442.8134765625	-506.40185546875	-2766.906005859375	748.3057861328125	-534.0239868164062	-2722.31591796875	626.0108642578125	-543.3677978515625	-2348.89892578125	129.6310577392578	-231.9242706298828	-2894.09423828125	519.8115234375	-522.5170288085938	-2792.954833984375	654.3333129882812	-516.4615478515625	-2441.007568359375	768.1693115234375	-248.0480499267578	-2977.068359375	70.91995239257812	-467.3693542480469	-2513.630615234375	741.94580078125	-237.6190338134766	-2402.89453125	678.1461791992188	-274.0282287597656	-2477.8203125	646.0126342773438	-254.3489227294922	-2780.218994140625	572.9635009765625	-529.2005615234375	-2436.32373046875	587.0589599609375	-260.2788696289062	-2829.726318359375	469.5292663574219	-531.1463012695312	-2894.095947265625	390.4473266601562	-519.3176879882812	-2419.373291015625	463.7991333007812	-249.2098541259766	-3027.2138671875	124.8414611816406	-520.3565063476562	-2504.1357421875	465.422607421875	-252.5126800537109	-3079.4052734375	287.9209899902344	-398.5529174804688	-2427.447021484375	360.4578552246094	-257.0458984375	-2507.218994140625	368.7254943847656	-260.8270568847656	-3032.53759765625	277.843505859375	-492.4940795898438	-2481.566162109375	186.1015472412109	-272.2068786621094	-2271.64697265625	144.2283477783203	-286.7393798828125	-2534.062744140625	154.9919891357422	-328.9600219726562	-2509.965087890625	126.0119476318359	-356.9606018066406	-2528.81591796875	131.0529479980469	-301.6866455078125	-3095.86083984375	296.8476257324219	-452.2169494628906
5	0.02	-2457.841064453125	1500.021606445312	-568.2821044921875	-2522.344482421875	1503.854125976562	-278.6909484863281	-2546.301513671875	1048.761352539062	-550.3018188476562	-2524.1279296875	1061.783447265625	-277.5160522460938	-2511.593505859375	995.5083618164062	-525.2295532226562	-3057.17919921875	317.3334655761719	-427.1513366699219	-2499.266357421875	1017.142395019531	-295.9599304199219	-2678.672119140625	949.9048461914062	-555.4364013671875	-2634.56787109375	968.4815063476562	-240.3938903808594	-2672.623779296875	1067.582397460938	-415.6751403808594	-2682.2421875	722.6689453125	-564.8461303710938	-2941.284423828125	447.3369750976562	-505.7200622558594	-2750.171630859375	749.166015625	-533.463134765625	-2705.892333984375	627.4669799804688	-543.5186157226562	-2317.921142578125	131.5173492431641	-231.4901885986328	-2879.537841796875	523.6784057617188	-522.638916015625	-2776.80712890625	655.8126831054688	-516.1676635742188	-2426.4599609375	765.8475952148438	-248.4059906005859	-2970.923095703125	76.4234848022461	-470.8946838378906	-2498.829345703125	741.53271484375	-237.8533172607422	-2388.883056640625	677.0587158203125	-273.7721862792969	-2463.6552734375	645.8026733398438	-253.5620422363281	-2764.513916015625	574.5484008789062	-529.5851440429688	-2422.483154296875	585.8098754882812	-259.8659973144531	-2815.96044921875	471.9829406738281	-531.5509643554688	-2881.599609375	393.5824279785156	-519.5995483398438	-2403.1572265625	462.3425903320312	-248.8540344238281	-3020.34814453125	132.9193572998047	-522.4048461914062	-2489.156982421875	461.2988586425781	-253.276611328125	-3068.3740234375	295.1081237792969	-397.597900390625	-2408.306640625	358.6237182617188	-256.9056091308594	-2486.875	364.5762023925781	-260.9967346191406	-3023.17333984375	285.2422180175781	-492.1312255859375	-2450.98583984375	183.0139770507812	-272.2583923339844	-2240.38427734375	150.2957305908203	-284.3135986328125	-2504.654296875	149.124267578125	-329.4561462402344	-2478.831787109375	121.4608001708984	-357.4235229492188	-2498.062255859375	124.8136444091797	-302.4168090820312	-3085.38720703125	304.3687744140625	-450.521728515625
